<?xml version="1.0" standalone="no"?>
<!DOCTYPE svg PUBLIC "-//W3C//DTD SVG 20010904//EN"
 "http://www.w3.org/TR/2001/REC-SVG-20010904/DTD/svg10.dtd">
<svg version="1.0" xmlns="http://www.w3.org/2000/svg"
 width="900.000000pt" height="864.000000pt" viewBox="0 0 900.000000 864.000000"
 preserveAspectRatio="xMidYMid meet">
<metadata>
Created by potrace 1.10, written by Peter Selinger 2001-2011
</metadata>
<g transform="translate(0.000000,864.000000) scale(0.100000,-0.100000)"
fill="#b5bacd" stroke="none">
<path d="M4434 8393 c-3 -10 -11 -34 -18 -53 -25 -68 -38 -105 -46 -135 -5
-16 -25 -75 -45 -130 -20 -55 -40 -113 -45 -130 -10 -37 -29 -90 -47 -132 -7
-17 -13 -36 -13 -42 0 -6 -6 -25 -14 -43 -16 -40 -35 -93 -46 -133 -5 -16 -25
-75 -45 -130 -20 -55 -40 -114 -44 -131 -5 -18 -12 -37 -16 -44 -4 -7 -11 -26
-16 -44 -4 -17 -24 -76 -44 -131 -20 -55 -40 -113 -45 -130 -10 -37 -29 -90
-47 -132 -7 -17 -13 -36 -13 -42 0 -6 -6 -25 -14 -43 -16 -40 -35 -93 -46
-133 -5 -16 -25 -75 -45 -130 -20 -55 -40 -113 -45 -130 -10 -37 -29 -90 -47
-132 -7 -17 -13 -36 -13 -42 0 -6 -6 -25 -14 -43 -16 -40 -35 -93 -46 -133 -5
-16 -25 -75 -45 -130 -20 -55 -40 -114 -44 -131 -5 -18 -12 -37 -16 -44 -4 -7
-11 -26 -16 -44 -4 -17 -24 -76 -44 -131 -49 -135 -57 -168 -42 -177 7 -4 514
-7 1127 -5 1079 2 1115 3 1118 21 2 10 -3 32 -11 50 -8 17 -23 51 -32 76 -10
25 -23 59 -30 75 -7 17 -21 50 -30 75 -10 25 -23 59 -30 75 -7 17 -21 50 -30
75 -9 25 -23 59 -30 75 -7 17 -20 50 -30 75 -9 25 -23 59 -30 75 -7 17 -20 50
-30 75 -10 25 -23 59 -30 75 -7 17 -21 50 -30 75 -9 25 -23 59 -30 75 -7 17
-20 50 -30 75 -10 25 -23 59 -30 75 -7 17 -21 50 -30 75 -9 25 -23 59 -30 75
-7 17 -20 50 -30 75 -9 25 -23 59 -30 75 -7 17 -20 50 -30 75 -9 25 -23 59
-30 75 -7 17 -20 50 -30 75 -9 25 -23 59 -30 75 -7 17 -20 50 -30 75 -9 25
-23 59 -30 75 -7 17 -20 50 -30 75 -9 25 -23 59 -30 75 -7 17 -20 50 -30 75
-9 25 -23 59 -30 75 -7 17 -20 50 -30 75 -9 25 -23 59 -30 75 -7 17 -20 50
-30 75 -9 25 -23 59 -30 75 -7 17 -20 50 -30 75 -9 25 -23 59 -30 75 -7 17
-20 50 -30 75 -9 25 -23 59 -30 75 -7 17 -20 50 -30 75 -9 25 -23 59 -30 75
-7 17 -21 51 -32 77 -19 51 -30 59 -39 31z"/>
<path d="M431 5184 c8 -9 35 -33 60 -53 26 -20 120 -92 209 -161 90 -69 177
-136 195 -150 18 -14 97 -74 176 -134 79 -60 146 -113 149 -116 3 -4 26 -22
51 -41 114 -85 334 -253 339 -259 3 -4 26 -22 51 -41 114 -85 334 -253 339
-259 3 -4 26 -22 51 -41 117 -86 335 -253 339 -259 3 -4 82 -65 175 -135 94
-71 178 -137 188 -147 20 -20 21 -12 -18 -178 -7 -30 -20 -91 -30 -135 -9 -44
-21 -95 -26 -112 -6 -18 -14 -54 -19 -80 -8 -45 -13 -68 -42 -183 -6 -25 -14
-63 -18 -85 -4 -22 -13 -62 -20 -90 -6 -27 -18 -75 -25 -105 -7 -30 -19 -77
-25 -105 -7 -27 -16 -68 -20 -90 -4 -22 -13 -62 -20 -90 -22 -91 -38 -159 -54
-230 -8 -38 -23 -104 -32 -145 -9 -41 -22 -97 -30 -124 -8 -26 -14 -59 -14
-71 0 -13 -5 -36 -11 -52 -6 -15 -14 -48 -19 -73 -4 -25 -13 -67 -20 -95 -6
-27 -18 -75 -25 -105 -7 -30 -19 -77 -25 -105 -7 -27 -16 -68 -20 -90 -4 -22
-13 -62 -20 -90 -27 -113 -39 -164 -56 -240 -9 -44 -23 -102 -31 -129 -13 -50
-17 -106 -8 -106 7 0 154 102 291 203 66 48 175 128 244 177 69 50 192 138
273 197 186 135 356 258 543 393 80 58 201 146 269 195 68 50 133 97 146 105
24 16 196 141 397 287 70 51 136 99 147 107 11 8 54 39 95 68 149 107 419 302
435 316 6 4 33 23 60 42 28 19 94 66 147 105 155 113 383 278 518 375 69 49
192 138 273 197 186 135 356 258 543 393 80 58 202 146 270 195 69 50 190 137
270 195 80 58 203 147 272 197 70 51 136 99 147 107 11 8 54 39 95 68 109 78
150 108 295 213 72 52 139 101 150 109 11 8 54 39 95 68 169 121 421 304 437
317 6 6 26 19 43 30 17 10 38 28 46 40 l15 21 -4112 0 c-3814 0 -4110 -1
-4098 -16z"/>
<path d="M6219 3202 c-9 -4 -97 -67 -195 -140 -189 -141 -655 -484 -689 -508
-16 -11 -357 -261 -455 -334 -14 -10 -64 -46 -112 -80 -48 -34 -104 -76 -124
-94 l-37 -32 84 -58 c46 -31 122 -84 169 -117 47 -33 114 -81 150 -105 36 -25
103 -72 150 -105 47 -33 114 -80 150 -105 36 -25 97 -67 135 -94 39 -28 106
-75 150 -105 44 -31 118 -83 165 -116 47 -33 114 -80 150 -105 36 -24 103 -72
150 -105 47 -33 114 -80 150 -105 36 -24 103 -72 150 -105 47 -33 114 -80 150
-105 36 -24 103 -72 150 -105 47 -33 114 -80 150 -105 36 -24 106 -73 155
-109 50 -35 93 -64 98 -64 11 -1 8 35 -7 76 -13 36 -29 91 -60 206 -8 28 -22
79 -32 112 -33 115 -72 254 -89 315 -25 88 -44 156 -60 210 -8 30 -22 78 -29
105 -8 28 -22 77 -32 110 -9 33 -23 80 -29 105 -12 42 -30 105 -60 210 -7 25
-21 72 -30 105 -17 61 -28 100 -59 210 -28 96 -62 217 -90 318 -15 52 -26 92
-62 217 -30 105 -48 168 -59 210 -46 161 -70 245 -91 320 -9 30 -18 61 -20 68
-4 13 -11 14 -35 4z"/>
</g>
</svg>
