<?xml version="1.0" standalone="no"?>
<!DOCTYPE svg PUBLIC "-//W3C//DTD SVG 20010904//EN"
 "http://www.w3.org/TR/2001/REC-SVG-20010904/DTD/svg10.dtd">
<svg version="1.0" xmlns="http://www.w3.org/2000/svg"
 width="300.000000pt" height="288.000000pt" viewBox="0 0 300.000000 288.000000"
 preserveAspectRatio="xMidYMid meet">
<metadata>
Created by potrace 1.10, written by Peter Selinger 2001-2011
</metadata>
<g transform="translate(0.000000,288.000000) scale(0.100000,-0.100000)"
fill="#000000" stroke="none">
<path d="M1308 2300 l-174 -510 381 0 381 0 -202 506 c-112 279 -205 508 -207
510 -2 3 -83 -225 -179 -506z m366 -28 c97 -243 176 -445 176 -447 0 -3 -151
-5 -335 -5 -261 0 -335 3 -335 13 0 25 304 896 311 889 4 -4 86 -206 183 -450z"/>
<path d="M140 1737 c0 -2 178 -140 395 -307 225 -173 394 -309 391 -316 -3 -7
-52 -218 -110 -471 -57 -252 -108 -467 -112 -478 -7 -16 -1 -14 31 11 22 17
513 372 1090 789 578 417 1054 762 1059 766 6 5 -592 9 -1367 9 -757 0 -1377
-1 -1377 -3z m2650 -35 c-1 -4 -33 -30 -73 -59 -40 -29 -92 -67 -117 -85 -64
-46 -125 -90 -200 -143 -36 -25 -91 -65 -122 -88 -31 -23 -114 -84 -185 -134
-70 -51 -171 -124 -223 -162 -52 -39 -129 -94 -170 -122 -41 -29 -96 -68 -122
-88 -49 -38 -253 -185 -292 -211 -12 -8 -54 -38 -92 -66 -215 -158 -436 -315
-439 -312 -2 2 21 111 51 243 30 132 56 249 59 260 2 11 22 100 44 198 46 201
46 201 27 219 -26 26 -66 58 -71 58 -6 0 -131 96 -154 118 -8 8 -78 62 -154
120 -77 58 -147 111 -156 118 -51 41 -110 87 -138 106 -18 13 -33 26 -33 30 0
4 576 8 1280 8 704 -1 1280 -4 1280 -8z"/>
<path d="M1812 878 c-150 -110 -270 -204 -265 -208 14 -13 812 -570 817 -570
2 0 -2 17 -9 38 -7 20 -70 240 -140 487 -70 248 -128 451 -129 452 0 0 -124
-89 -274 -199z m273 115 c4 -21 12 -56 19 -78 7 -22 18 -58 24 -80 6 -22 47
-168 91 -325 44 -157 83 -298 87 -314 7 -29 5 -28 -78 30 -46 32 -206 145
-356 249 -149 105 -273 195 -276 200 -2 6 42 43 99 83 56 41 113 82 126 92 57
45 244 180 250 180 4 0 10 -17 14 -37z"/>
</g>
</svg>
